<?xml version="1.0" encoding="UTF-8"?>
<!DOCTYPE svg PUBLIC "-//W3C//DTD SVG 1.1//EN" "http://www.w3.org/Graphics/SVG/1.1/DTD/svg11.dtd">
<svg xmlns="http://www.w3.org/2000/svg" version="1.1" width="349px" height="350px" style="shape-rendering:geometricPrecision; text-rendering:geometricPrecision; image-rendering:optimizeQuality; fill-rule:evenodd; clip-rule:evenodd" xmlns:xlink="http://www.w3.org/1999/xlink">
<g><path style="opacity:0.999" fill="#fabd01" d="M 161.5,-0.5 C 170.167,-0.5 178.833,-0.5 187.5,-0.5C 261.365,8.53774 312.199,47.5377 340,116.5C 343.295,127.833 346.128,139.166 348.5,150.5C 348.5,166.5 348.5,182.5 348.5,198.5C 335.196,271.561 293.196,319.728 222.5,343C 210.846,346.051 199.18,348.217 187.5,349.5C 125.167,349.5 62.8333,349.5 0.5,349.5C 0.5,348.833 0.166667,348.5 -0.5,348.5C -0.5,290.5 -0.5,232.5 -0.5,174.5C 3.33528,93.0152 43.3353,37.5152 119.5,8C 133.348,3.75212 147.348,0.918788 161.5,-0.5 Z M 196.5,92.5 C 203.175,92.3337 209.842,92.5004 216.5,93C 209.5,100.333 202.5,107.667 195.5,115C 191.3,116.367 186.967,116.867 182.5,116.5C 186.72,108.271 191.386,100.271 196.5,92.5 Z M 114.5,95.5 C 124.6,98.0336 127.433,104.034 123,113.5C 116.984,118.99 111.318,118.657 106,112.5C 102.521,103.458 105.354,97.7909 114.5,95.5 Z M 186.5,127.5 C 206.068,125.502 222.568,131.502 236,145.5C 240.342,151.512 243.342,158.179 245,165.5C 245.5,188.164 245.667,210.831 245.5,233.5C 239.833,233.5 234.167,233.5 228.5,233.5C 228.958,210.447 228.458,187.447 227,164.5C 223.014,155.18 216.18,149.014 206.5,146C 177.014,140.149 160.347,152.149 156.5,182C 159.929,210.196 175.595,222.196 203.5,218C 208.871,215.303 213.704,211.803 218,207.5C 218.81,214.082 218.643,220.582 217.5,227C 206.467,235.115 194.134,237.782 180.5,235C 154.091,226.912 140.425,208.912 139.5,181C 141.323,150.693 156.99,132.859 186.5,127.5 Z M 107.5,129.5 C 112.772,130.4 118.105,130.733 123.5,130.5C 123.667,168.168 123.5,205.835 123,243.5C 120.36,258.806 111.526,268.306 96.5,272C 90.2131,273.107 83.8798,273.607 77.5,273.5C 77.5,268.167 77.5,262.833 77.5,257.5C 84.7962,257.863 91.7962,256.697 98.5,254C 101.433,251.736 103.6,248.902 105,245.5C 105.333,209.5 105.667,173.5 106,137.5C 106.272,134.746 106.772,132.079 107.5,129.5 Z"/></g>
</svg>
