<?xml version="1.0" encoding="UTF-8"?>
<svg version="1.1" xmlns="http://www.w3.org/2000/svg" width="220" height="220">
<path d="M0 0 C1.36130326 -0.00571481 2.72260175 -0.01268334 4.08389282 -0.02079773 C7.75348093 -0.03862304 11.42282854 -0.03758085 15.0924468 -0.03185534 C18.16867105 -0.0287476 21.24485014 -0.03487355 24.32106793 -0.04089409 C31.58517784 -0.0549032 38.84917005 -0.05340864 46.11328125 -0.04199219 C53.57853208 -0.03051804 61.04342335 -0.04458288 68.50862682 -0.07138866 C74.94465706 -0.09362381 81.38057509 -0.10016543 87.81664097 -0.09431225 C91.64887366 -0.09095964 95.48087605 -0.09324349 99.31307602 -0.11056328 C102.91991758 -0.12615552 106.5262312 -0.12194305 110.13305283 -0.10325813 C112.06773478 -0.09788057 114.00244116 -0.11199295 115.93707275 -0.12695312 C130.25763978 -0.00760794 142.3547363 4.9132909 152.95361328 14.59155273 C163.66425976 26.0746016 166.66224035 38.99434643 166.60766602 54.20043945 C166.61338083 55.56174272 166.62034935 56.9230412 166.62846375 58.28433228 C166.64628906 61.95392039 166.64524686 65.62326799 166.63952136 69.29288626 C166.63641361 72.3691105 166.64253957 75.4452896 166.64856011 78.52150738 C166.66256921 85.78561729 166.66107466 93.04960951 166.6496582 100.3137207 C166.63818406 107.77897154 166.65224889 115.2438628 166.67905468 122.70906627 C166.70128982 129.14509652 166.70783144 135.58101454 166.70197827 142.01708043 C166.69862565 145.84931312 166.70090951 149.68131551 166.71822929 153.51351547 C166.73382154 157.12035704 166.72960907 160.72667065 166.71092415 164.33349228 C166.70554658 166.26817424 166.71965896 168.20288062 166.73461914 170.13751221 C166.61527395 184.45807923 161.69437511 196.55517575 152.01611328 207.15405273 C140.53306442 217.86469921 127.61331959 220.8626798 112.40722656 220.80810547 C111.0459233 220.81382028 109.68462482 220.82078881 108.32333374 220.8289032 C104.65374563 220.84672851 100.98439803 220.84568631 97.31477976 220.83996081 C94.23855551 220.83685307 91.16237642 220.84297902 88.08615863 220.84899956 C80.82204872 220.86300867 73.55805651 220.86151411 66.29394531 220.85009766 C58.82869448 220.83862351 51.36380321 220.85268835 43.89859974 220.87949413 C37.4625695 220.90172928 31.02665147 220.9082709 24.59058559 220.90241772 C20.7583529 220.89906511 16.92635051 220.90134896 13.09415054 220.91866875 C9.48730898 220.93426099 5.88099537 220.93004852 2.27417374 220.9113636 C0.33949178 220.90598604 -1.5952146 220.92009842 -3.52984619 220.93505859 C-17.85041321 220.81571341 -29.94750974 215.89481457 -40.54638672 206.21655273 C-51.25703319 194.73350387 -54.25501378 181.81375904 -54.20043945 166.60766602 C-54.20615427 165.24636275 -54.21312279 163.88506427 -54.22123718 162.52377319 C-54.2390625 158.85418508 -54.2380203 155.18483748 -54.2322948 151.51521921 C-54.22918705 148.43899497 -54.235313 145.36281587 -54.24133354 142.28659809 C-54.25534265 135.02248818 -54.25384809 127.75849596 -54.24243164 120.49438477 C-54.2309575 113.02913393 -54.24502233 105.56424266 -54.27182811 98.0990392 C-54.29406326 91.66300895 -54.30060488 85.22709093 -54.2947517 78.79102504 C-54.29139909 74.95879235 -54.29368295 71.12678996 -54.31100273 67.29459 C-54.32659497 63.68774843 -54.32238251 60.08143482 -54.30369759 56.47461319 C-54.29832002 54.53993123 -54.3124324 52.60522485 -54.32739258 50.67059326 C-54.20804739 36.35002624 -49.28714855 24.25292972 -39.60888672 13.65405273 C-28.12583785 2.94340626 -15.20609303 -0.05457433 0 0 Z " fill="#02C75A" transform="translate(53.79638671875,-0.404052734375)"/>
<path d="M0 0 C9.9 0 19.8 0 30 0 C34.88083196 6.10103994 39.04465853 11.49052462 43.08203125 18.00390625 C48.17514411 25.95995017 53.81397559 33.63128794 59.6484375 41.05859375 C61.63304869 43.90932139 63.2766523 46.98414152 65 50 C65.33 33.5 65.66 17 66 0 C76.56 0 87.12 0 98 0 C98 32.34 98 64.68 98 98 C87.77 98 77.54 98 67 98 C58.82620067 88.87259075 58.82620067 88.87259075 55.96582031 82.17871094 C54.75098722 79.43827351 53.17141896 77.14254005 51.375 74.75 C50.85035156 74.0075 50.32570312 73.265 49.78515625 72.5 C48.35650043 70.49925662 46.92671142 68.49934025 45.49609375 66.5 C45.05281738 65.8802832 44.60954102 65.26056641 44.15283203 64.62207031 C43.28659158 63.41217381 42.41916037 62.20312857 41.55029297 60.99511719 C38.95610821 57.37885482 36.45095698 53.71579773 34 50 C33.34 49.01 32.68 48.02 32 47 C31.67 63.83 31.34 80.66 31 98 C20.77 98 10.54 98 0 98 C0 65.66 0 33.32 0 0 Z " fill="#FBFEFC" transform="translate(61,61)"/>
</svg>
