<svg xmlns="http://www.w3.org/2000/svg" xml:space="preserve" id="Layer_1" x="0" y="0" version="1.1" viewBox="0 0 1000 1000"><style>.st5{fill:#fff}</style><circle cx="500" cy="500" r="377.3" style="fill:#03cf5d"/><path d="m389.5 450-39.2 100h33.3l4.7-13.2h37.6l4.7 13.2H464l-39.2-100zm6.4 62.7 11.2-31.2 11.2 31.2zM602.7 512h45.6v-24h-45.6v-13.5h46.1V450h-78v100h79v-24.5h-47.1zM503.7 515.8 480.1 450h-33.3L486 550h35.3l39.2-100h-33.3zM307.6 503.5 270.3 450h-30.8v100h32.3v-53.5l37.3 53.5H340V450h-32.4zM735.3 515.7l3-1.3c11.6-4.9 17.5-15.4 17.5-28.7 0-12.6-4.6-22-13.7-27.8-8.4-5.4-19.4-7.9-34.5-7.9h-42.2v100h31.4v-27.9h11.3l19.1 27.9h33.3zm-21.8-19.1h-17.2v-21.1h17.2c5.8 0 10.5 4.7 10.5 10.5 0 5.9-4.7 10.6-10.5 10.6" class="st5"/></svg>